<svg width="32" height="32" viewBox="0 0 32 32" fill="none" xmlns="http://www.w3.org/2000/svg">
<g clip-path="url(#clip0_3881_1473)">
<g filter="url(#filter0_d_3881_1473)">
<path d="M23 29.3334H9C8.20435 29.3334 7.44129 29.0173 6.87868 28.4547C6.31607 27.8921 6 27.129 6 26.3334V17.3334C6 16.5377 6.31607 15.7747 6.87868 15.2121C7.44129 14.6494 8.20435 14.3334 9 14.3334H23C23.7957 14.3334 24.5587 14.6494 25.1213 15.2121C25.6839 15.7747 26 16.5377 26 17.3334V26.3334C26 27.129 25.6839 27.8921 25.1213 28.4547C24.5587 29.0173 23.7957 29.3334 23 29.3334Z" stroke="#4C4F5E" stroke-width="1.4" stroke-linecap="round" stroke-linejoin="round" shape-rendering="crispEdges"/>
</g>
<g filter="url(#filter1_d_3881_1473)">
<path d="M9 14V9C9 5.13401 12.134 2 16 2C19.866 2 23 5.13401 23 9V14" stroke="#4C4F5E" stroke-width="1.4"/>
</g>
</g>
<defs>
<filter id="filter0_d_3881_1473" x="3.2998" y="11.6334" width="25.4004" height="20.4" filterUnits="userSpaceOnUse" color-interpolation-filters="sRGB">
<feFlood flood-opacity="0" result="BackgroundImageFix"/>
<feColorMatrix in="SourceAlpha" type="matrix" values="0 0 0 0 0 0 0 0 0 0 0 0 0 0 0 0 0 0 127 0" result="hardAlpha"/>
<feOffset/>
<feGaussianBlur stdDeviation="1"/>
<feComposite in2="hardAlpha" operator="out"/>
<feColorMatrix type="matrix" values="0 0 0 0 1 0 0 0 0 1 0 0 0 0 1 0 0 0 1 0"/>
<feBlend mode="normal" in2="BackgroundImageFix" result="effect1_dropShadow_3881_1473"/>
<feBlend mode="normal" in="SourceGraphic" in2="effect1_dropShadow_3881_1473" result="shape"/>
</filter>
<filter id="filter1_d_3881_1473" x="6.2998" y="-0.700012" width="19.4004" height="16.7" filterUnits="userSpaceOnUse" color-interpolation-filters="sRGB">
<feFlood flood-opacity="0" result="BackgroundImageFix"/>
<feColorMatrix in="SourceAlpha" type="matrix" values="0 0 0 0 0 0 0 0 0 0 0 0 0 0 0 0 0 0 127 0" result="hardAlpha"/>
<feOffset/>
<feGaussianBlur stdDeviation="1"/>
<feComposite in2="hardAlpha" operator="out"/>
<feColorMatrix type="matrix" values="0 0 0 0 1 0 0 0 0 1 0 0 0 0 1 0 0 0 1 0"/>
<feBlend mode="normal" in2="BackgroundImageFix" result="effect1_dropShadow_3881_1473"/>
<feBlend mode="normal" in="SourceGraphic" in2="effect1_dropShadow_3881_1473" result="shape"/>
</filter>
<clipPath id="clip0_3881_1473">
<rect width="32" height="32" fill="white"/>
</clipPath>
</defs>
</svg>
